# xmcd
#
# Track frame offsets:
#	150
#	10665
#	21252
#	32585
#	44130
#	54560
#	65720
#	78355
#	87885
#	97902
#	108820
#	117977
#	129487
#	141482
#	155347
#	168595
#	179600
#	190610
#	203780
#	216920
#	230477
#	239665
#	251812
#	265042
#	278080
#
# Disc length: 3890 seconds
#
# Revision: 1
# Processed by: cddbd v1.5.2PL0 Copyright (c) Steve Scherf et al.
# Submitted via: audiograbber 1.83.01
#
DISCID=660f3019
DTITLE=Various Artist - Stompin' 22: Crazed Rhythm 'n' Blues Pounders
DYEAR=1900
DGENRE=Blues
TTITLE0=Billy Fair - I'll Be True To You
TTITLE1=Brownie McGhee - All Night Party
TTITLE2=Big Sheba - Soft Soapin' Mama
TTITLE3=Tasso Zachary - Louisville, KY
TTITLE4=Willie Hunter - Willie's Blues
TTITLE5=Pro McClam - Boot Um
TTITLE6=Roosevelt Wardell - She Drinks Too Much Wine
TTITLE7=Patti Jerome - No Mama, No Papa
TTITLE8=Willie Hunter - I'm In Love With You Baby
TTITLE9=Big Sheba - Alphabet Blues
TTITLE10=James B. Berry - Long Nose
TTITLE11=Paul Bascomb - Don't Put My Bizness In The Street
TTITLE12=Sammy Cotton - Back Bitin'
TTITLE13=Sammy Cotton - I Ain't Gonna Worry My Life Anymore
TTITLE14=Dorothy Ellis - Drill Daddy Drill
TTITLE15=Gil Bernal - Keep Those Wonderin' Eyes Off My Baby
TTITLE16=Paul Bascomb - Pink Cadillac
TTITLE17=Billy Fair - Boogie In The Morning
TTITLE18=Stick McGhee - You Gotta Have Something On The Ball
TTITLE19=Charles Rene - I've Got The Blues
TTITLE20=Jimmy Butler - Trim Your Tree
TTITLE21=Nelda Dupuy - Riding With The Blues
TTITLE22=Rubberlegs Williams - Goin' Back To Washington Corner
TTITLE23=Bob Mitchell - Standing On The Corner
TTITLE24=Sherman Brooks and The Blue Tones - Cool Daddy Blues
EXTD=
EXTT0=
EXTT1=
EXTT2=
EXTT3=
EXTT4=
EXTT5=
EXTT6=
EXTT7=
EXTT8=
EXTT9=
EXTT10=
EXTT11=
EXTT12=
EXTT13=
EXTT14=
EXTT15=
EXTT16=
EXTT17=
EXTT18=
EXTT19=
EXTT20=
EXTT21=
EXTT22=
EXTT23=
EXTT24=
PLAYORDER=
